<?xml version="1.0" standalone="no"?>
<!DOCTYPE svg PUBLIC "-//W3C//DTD SVG 20010904//EN"
 "http://www.w3.org/TR/2001/REC-SVG-20010904/DTD/svg10.dtd">
<svg version="1.0" xmlns="http://www.w3.org/2000/svg"
 width="260.000000pt" height="260.000000pt" viewBox="0 0 260.000000 260.000000"
 preserveAspectRatio="xMidYMid meet">
<metadata>
Created by potrace 1.14, written by Peter Selinger 2001-2017
</metadata>
<g transform="translate(0.000000,260.000000) scale(0.100000,-0.100000)"
fill="#000000" stroke="none">
<path d="M275 2580 c-115 -37 -219 -142 -255 -259 -19 -61 -20 -94 -20 -1021
0 -927 1 -960 20 -1021 37 -119 140 -222 259 -259 61 -19 94 -20 1021 -20 927
0 960 1 1021 20 119 37 222 140 259 259 19 61 20 94 20 1021 0 927 -1 960 -20
1021 -37 119 -140 222 -259 259 -61 19 -93 20 -1025 19 -920 0 -964 -1 -1021
-19z m1375 -489 c132 -33 275 -108 349 -181 l61 -62 0 -129 0 -129 -202 2
-202 3 -7 34 c-10 50 -39 83 -99 113 -135 68 -360 50 -436 -34 -64 -69 -26
-135 100 -173 27 -8 144 -31 260 -51 115 -20 247 -47 293 -60 99 -29 208 -82
258 -125 l35 -31 0 -278 0 -278 -47 -41 c-98 -84 -253 -148 -427 -176 -104
-17 -347 -19 -451 -5 -348 50 -570 220 -592 453 l-6 67 239 0 239 0 20 -52
c24 -63 74 -98 174 -124 96 -24 278 -16 349 15 100 45 133 123 72 174 -49 41
-122 62 -370 106 -349 62 -473 110 -579 226 -69 76 -94 145 -94 260 -1 71 4
102 22 148 57 145 208 263 404 317 120 33 182 39 372 35 142 -2 198 -7 265
-24z"/>
</g>
</svg>
