<svg width="34" height="32" viewBox="0 0 34 32" fill="none" xmlns="http://www.w3.org/2000/svg">
<g clip-path="url(#clip0_804_2243)">
<path d="M16.907 32C25.8761 32 33.147 24.8366 33.147 16C33.147 7.16344 25.8761 0 16.907 0C7.93789 0 0.666992 7.16344 0.666992 16C0.666992 24.8366 7.93789 32 16.907 32Z" fill="#7C83A1"/>
<path d="M16.9071 25.5999C22.2885 25.5999 26.6511 21.3018 26.6511 15.9999C26.6511 10.698 22.2885 6.3999 16.9071 6.3999C11.5256 6.3999 7.16309 10.698 7.16309 15.9999C7.16309 21.3018 11.5256 25.5999 16.9071 25.5999Z" fill="#7C83A1" stroke="#191B25" stroke-width="1.2"/>
<path d="M13.6592 20.7268L22.0952 16.0014L13.6592 11.2734V20.7268Z" fill="#191B25"/>
</g>
<defs>
<clipPath id="clip0_804_2243">
<rect width="33.3333" height="32" fill="white" transform="translate(0.666992)"/>
</clipPath>
</defs>
</svg>
