<svg width="33" height="32" viewBox="0 0 33 32" fill="none" xmlns="http://www.w3.org/2000/svg">
<path d="M25.7705 0H6.89551C3.27695 0 0.333008 2.94394 0.333008 6.5625V25.4375C0.333008 29.0561 3.27695 32 6.89551 32H25.7705C29.3891 32 32.333 29.0561 32.333 25.4375V6.5625C32.333 2.94394 29.3891 0 25.7705 0ZM24.2705 19.75V20.6875V22.25C24.2705 23.6285 23.149 24.75 21.7705 24.75H20.208C18.8295 24.75 17.708 23.6285 17.708 22.25C17.708 20.8715 18.8295 19.75 20.208 19.75H22.3955V10.5504L13.3955 12.1022V21.625V22.5625V24.125C13.3955 25.5035 12.274 26.625 10.8955 26.625H9.33301C7.95451 26.625 6.83301 25.5035 6.83301 24.125C6.83301 22.7465 7.95451 21.625 9.33301 21.625H11.5205V7.39781L24.2705 5.19956V19.75Z" fill="#7C83A1"/>
</svg>
