<svg width="32" height="32" viewBox="0 0 32 32" fill="none" xmlns="http://www.w3.org/2000/svg">
<path fill-rule="evenodd" clip-rule="evenodd" d="M16 0C11.7565 0 7.68687 1.68571 4.68629 4.68629C1.68571 7.68687 0 11.7565 0 16C0 20.2435 1.68571 24.3131 4.68629 27.3137C7.68687 30.3143 11.7565 32 16 32C20.2435 32 24.3131 30.3143 27.3137 27.3137C30.3143 24.3131 32 20.2435 32 16C32 11.7565 30.3143 7.68687 27.3137 4.68629C24.3131 1.68571 20.2435 0 16 0ZM23.3386 23.0767C23.2704 23.1888 23.1808 23.2863 23.0749 23.3636C22.969 23.4409 22.8488 23.4966 22.7213 23.5274C22.5939 23.5582 22.4615 23.5636 22.332 23.5431C22.2025 23.5227 22.0782 23.4769 21.9664 23.4083C18.2087 21.1129 13.4818 20.5943 7.91158 21.8661C7.78397 21.8952 7.65187 21.899 7.52283 21.877C7.39378 21.8551 7.27031 21.808 7.15947 21.7384C7.04864 21.6688 6.9526 21.578 6.87684 21.4712C6.80109 21.3645 6.7471 21.2439 6.71796 21.1163C6.68882 20.9886 6.6851 20.8565 6.70701 20.7275C6.72893 20.5985 6.77604 20.475 6.84567 20.3641C6.9153 20.2533 7.00608 20.1573 7.11282 20.0815C7.21957 20.0058 7.34019 19.9518 7.4678 19.9226C13.5617 18.5284 18.7902 19.1286 23.007 21.7063C23.4763 21.9936 23.6242 22.6074 23.3386 23.0767ZM25.2939 18.7205C25.1209 19.002 24.8433 19.2034 24.522 19.2805C24.2007 19.3577 23.862 19.3043 23.58 19.132C19.2799 16.488 12.7235 15.7228 7.63613 17.2667C7.3266 17.3402 7.00073 17.2928 6.72492 17.1343C6.44911 16.9758 6.24414 16.718 6.15177 16.4136C6.05941 16.1092 6.08661 15.781 6.22783 15.496C6.36905 15.2109 6.61365 14.9904 6.9118 14.8795C12.7235 13.1163 19.9464 13.9715 24.8842 17.0049C25.024 17.0906 25.1456 17.203 25.242 17.3357C25.3384 17.4684 25.4076 17.6188 25.4458 17.7783C25.4841 17.9378 25.4905 18.1032 25.4647 18.2652C25.4389 18.4272 25.3815 18.5825 25.2956 18.7222L25.2939 18.7205ZM25.4657 14.1841C20.3069 11.1218 11.7985 10.8395 6.87609 12.3358C6.68719 12.3961 6.48819 12.4182 6.29067 12.4009C6.09315 12.3836 5.90104 12.3271 5.7255 12.2349C5.54997 12.1427 5.39451 12.0165 5.26817 11.8637C5.14183 11.7109 5.04711 11.5345 4.98954 11.3448C4.93196 11.155 4.91268 10.9558 4.93279 10.7585C4.95291 10.5612 5.01203 10.37 5.10672 10.1957C5.20141 10.0215 5.32978 9.86788 5.48437 9.74372C5.63896 9.61955 5.81669 9.52735 6.00723 9.47248C11.6574 7.75515 21.0533 8.08842 26.9892 11.6115C27.3305 11.814 27.5775 12.1437 27.6757 12.5283C27.7739 12.9129 27.7153 13.3207 27.5129 13.6621C27.3104 14.0034 26.9806 14.2504 26.596 14.3486C26.2115 14.4468 25.8036 14.3882 25.4623 14.1858" fill="#7C83A1"/>
</svg>
