<svg width="1413" height="772" viewBox="0 0 1413 772" fill="none" xmlns="http://www.w3.org/2000/svg">
<g filter="url(#filter0_dd_697_1494)">
<path d="M363.488 203.175C352.834 203.175 345.207 205.112 340.606 208.986C336.006 212.618 333.705 218.672 333.705 227.146V242.401H370.388V294.701H333.705V424H271.235V294.701H245.811V242.401H271.235V220.972C271.235 196.759 277.894 178.478 291.211 166.129C304.77 153.538 323.536 147.242 347.507 147.242C359.371 147.242 369.42 148.695 377.652 151.601V203.901C370.388 203.417 365.667 203.175 363.488 203.175ZM483.766 428.358C465.606 428.358 448.899 424.121 433.645 415.646C418.632 407.172 406.768 395.67 398.051 381.143C389.334 366.615 384.976 350.634 384.976 333.2C384.976 315.767 389.334 299.786 398.051 285.258C406.768 270.73 418.632 259.229 433.645 250.754C448.899 242.279 465.606 238.042 483.766 238.042C501.926 238.042 518.512 242.279 533.524 250.754C548.779 259.229 560.764 270.73 569.481 285.258C578.44 299.786 582.919 315.767 582.919 333.2C582.919 350.634 578.44 366.615 569.481 381.143C560.764 395.67 548.779 407.172 533.524 415.646C518.512 424.121 501.926 428.358 483.766 428.358ZM484.129 370.973C494.299 370.973 502.652 367.462 509.19 360.44C515.728 353.176 518.996 344.096 518.996 333.2C518.996 322.304 515.606 313.345 508.827 306.324C502.289 299.06 494.057 295.428 484.129 295.428C473.718 295.428 465.243 298.939 458.705 305.96C452.168 312.982 448.899 322.062 448.899 333.2C448.899 344.581 452.168 353.782 458.705 360.803C465.243 367.583 473.718 370.973 484.129 370.973ZM704.744 428.358C686.584 428.358 669.877 424.242 654.623 416.01C639.611 407.535 627.625 396.034 618.666 381.506C609.949 366.978 605.591 350.876 605.591 333.2C605.591 315.525 609.949 299.423 618.666 284.895C627.625 270.367 639.611 258.987 654.623 250.754C669.877 242.279 686.584 238.042 704.744 238.042C723.388 238.042 739.732 242.401 753.776 251.117C767.82 259.834 778.595 271.699 786.101 286.711L742.88 319.762C738.037 312.014 732.589 306.081 726.536 301.965C720.725 297.607 713.703 295.428 705.471 295.428C694.575 295.428 685.858 298.939 679.32 305.96C672.783 312.982 669.514 322.062 669.514 333.2C669.514 344.338 672.783 353.418 679.32 360.44C685.858 367.462 694.575 370.973 705.471 370.973C713.703 370.973 720.725 368.915 726.536 364.799C732.589 360.44 738.037 354.508 742.88 347.002L786.101 379.69C778.595 394.702 767.82 406.566 753.776 415.283C739.732 424 723.388 428.358 704.744 428.358ZM902.954 428.358C886.005 428.358 870.751 424.726 857.191 417.462C843.632 409.956 832.978 399.545 825.23 386.227C817.724 372.668 813.971 357.05 813.971 339.375V242.401H876.441V344.459C876.441 352.208 878.862 358.624 883.705 363.709C888.79 368.552 895.206 370.973 902.954 370.973C910.46 370.973 916.635 368.552 921.477 363.709C926.562 358.624 929.105 352.208 929.105 344.459V242.401H991.575V339.375C991.575 357.05 987.701 372.668 979.952 386.227C972.446 399.545 961.914 409.956 948.354 417.462C935.037 424.726 919.904 428.358 902.954 428.358ZM1092.46 428.358C1076.24 428.358 1061.23 425.332 1047.43 419.278C1033.87 413.225 1022.85 404.629 1014.37 393.491L1043.43 356.445C1058.93 371.457 1075.63 378.963 1093.55 378.963C1104.21 378.963 1109.53 376.3 1109.53 370.973C1109.53 369.036 1108.68 367.462 1106.99 366.251C1105.54 365.041 1102.87 363.588 1099 361.893L1078.66 353.539C1060.74 346.275 1047.43 338.285 1038.71 329.568C1030.23 320.852 1026 309.35 1026 295.064C1026 277.147 1032.41 263.224 1045.25 253.297C1058.08 243.127 1075.15 238.042 1096.46 238.042C1125.03 238.042 1147.79 246.88 1164.74 264.556L1135.32 302.692C1122.97 292.28 1110.14 287.074 1096.82 287.074C1088.35 287.074 1084.11 289.374 1084.11 293.975C1084.11 295.912 1085.08 297.607 1087.01 299.06C1088.95 300.512 1092.1 302.086 1096.46 303.781L1114.62 311.045C1132.78 318.309 1146.09 326.057 1154.57 334.29C1163.29 342.522 1167.64 353.782 1167.64 368.067C1167.64 386.712 1160.62 401.482 1146.58 412.378C1132.53 423.031 1114.5 428.358 1092.46 428.358Z" fill="#1A1C28"/>
</g>
<defs>
<filter id="filter0_dd_697_1494" x="0.58226" y="0.104942" width="1412.29" height="771.574" filterUnits="userSpaceOnUse" color-interpolation-filters="sRGB">
<feFlood flood-opacity="0" result="BackgroundImageFix"/>
<feColorMatrix in="SourceAlpha" type="matrix" values="0 0 0 0 0 0 0 0 0 0 0 0 0 0 0 0 0 0 127 0" result="hardAlpha"/>
<feOffset dy="98.0915"/>
<feGaussianBlur stdDeviation="122.614"/>
<feColorMatrix type="matrix" values="0 0 0 0 0.01375 0 0 0 0 0.01875 0 0 0 0 0.04625 0 0 0 0.6 0"/>
<feBlend mode="normal" in2="BackgroundImageFix" result="effect1_dropShadow_697_1494"/>
<feColorMatrix in="SourceAlpha" type="matrix" values="0 0 0 0 0 0 0 0 0 0 0 0 0 0 0 0 0 0 127 0" result="hardAlpha"/>
<feOffset dx="3.90274" dy="7.80547"/>
<feGaussianBlur stdDeviation="23.4164"/>
<feComposite in2="hardAlpha" operator="out"/>
<feColorMatrix type="matrix" values="0 0 0 0 0.096 0 0 0 0 0.106105 0 0 0 0 0.144 0 0 0 0.25 0"/>
<feBlend mode="normal" in2="effect1_dropShadow_697_1494" result="effect2_dropShadow_697_1494"/>
<feBlend mode="normal" in="SourceGraphic" in2="effect2_dropShadow_697_1494" result="shape"/>
</filter>
</defs>
</svg>
