<svg width="661" height="543" viewBox="0 0 661 543" fill="none" xmlns="http://www.w3.org/2000/svg">
<g filter="url(#filter0_dd_804_2058)">
<path d="M267.574 158.147C265.621 158.147 264.222 158.499 263.379 159.202C262.535 159.86 262.114 160.959 262.114 162.496V165.264H268.839V174.752H262.114V198.209H250.661V174.752H246V165.264H250.661V161.376C250.661 156.983 251.882 153.667 254.323 151.426C256.809 149.142 260.249 148 264.644 148C266.819 148 268.661 148.264 270.17 148.791V158.279C268.839 158.191 267.973 158.147 267.574 158.147Z" fill="#1A1C28"/>
<path d="M289.624 199C286.295 199 283.232 198.231 280.436 196.694C277.683 195.156 275.508 193.07 273.91 190.434C272.312 187.798 271.513 184.899 271.513 181.736C271.513 178.574 272.312 175.674 273.91 173.039C275.508 170.403 277.683 168.317 280.436 166.779C283.232 165.242 286.295 164.473 289.624 164.473C292.954 164.473 295.994 165.242 298.747 166.779C301.543 168.317 303.74 170.403 305.339 173.039C306.981 175.674 307.802 178.574 307.802 181.736C307.802 184.899 306.981 187.798 305.339 190.434C303.74 193.07 301.543 195.156 298.747 196.694C295.994 198.231 292.954 199 289.624 199ZM289.691 188.589C291.555 188.589 293.087 187.952 294.285 186.678C295.484 185.36 296.083 183.713 296.083 181.736C296.083 179.76 295.462 178.134 294.219 176.86C293.02 175.543 291.511 174.884 289.691 174.884C287.782 174.884 286.229 175.521 285.03 176.795C283.831 178.068 283.232 179.716 283.232 181.736C283.232 183.801 283.831 185.47 285.03 186.744C286.229 187.974 287.782 188.589 289.691 188.589Z" fill="#1A1C28"/>
<path d="M330.136 199C326.807 199 323.744 198.253 320.948 196.76C318.195 195.222 315.998 193.136 314.356 190.5C312.758 187.864 311.959 184.943 311.959 181.736C311.959 178.53 312.758 175.609 314.356 172.973C315.998 170.337 318.195 168.273 320.948 166.779C323.744 165.242 326.807 164.473 330.136 164.473C333.554 164.473 336.551 165.264 339.125 166.845C341.7 168.426 343.675 170.579 345.051 173.302L337.128 179.298C336.24 177.893 335.241 176.817 334.132 176.07C333.066 175.279 331.779 174.884 330.27 174.884C328.272 174.884 326.674 175.521 325.475 176.795C324.277 178.068 323.678 179.716 323.678 181.736C323.678 183.757 324.277 185.404 325.475 186.678C326.674 187.952 328.272 188.589 330.27 188.589C331.779 188.589 333.066 188.216 334.132 187.469C335.241 186.678 336.24 185.602 337.128 184.24L345.051 190.171C343.675 192.894 341.7 195.047 339.125 196.628C336.551 198.209 333.554 199 330.136 199Z" fill="#1A1C28"/>
<path d="M366.474 199C363.367 199 360.57 198.341 358.085 197.023C355.599 195.661 353.646 193.773 352.225 191.357C350.849 188.897 350.161 186.063 350.161 182.857V165.264H361.614V183.779C361.614 185.185 362.057 186.349 362.945 187.271C363.877 188.15 365.054 188.589 366.474 188.589C367.85 188.589 368.982 188.15 369.87 187.271C370.802 186.349 371.268 185.185 371.268 183.779V165.264H382.721V182.857C382.721 186.063 382.011 188.897 380.59 191.357C379.214 193.773 377.283 195.661 374.797 197.023C372.356 198.341 369.582 199 366.474 199Z" fill="#1A1C28"/>
<path d="M401.217 199C398.243 199 395.49 198.451 392.96 197.353C390.474 196.255 388.455 194.695 386.901 192.674L392.228 185.953C395.069 188.677 398.132 190.039 401.417 190.039C403.37 190.039 404.346 189.556 404.346 188.589C404.346 188.238 404.191 187.952 403.88 187.733C403.614 187.513 403.126 187.249 402.415 186.942L398.687 185.426C395.402 184.109 392.96 182.659 391.362 181.078C389.809 179.496 389.032 177.41 389.032 174.818C389.032 171.567 390.208 169.041 392.561 167.24C394.913 165.395 398.043 164.473 401.949 164.473C407.187 164.473 411.36 166.076 414.467 169.283L409.074 176.202C406.81 174.313 404.457 173.368 402.016 173.368C400.462 173.368 399.685 173.786 399.685 174.62C399.685 174.972 399.863 175.279 400.218 175.543C400.573 175.806 401.15 176.092 401.949 176.399L405.279 177.717C408.608 179.035 411.049 180.441 412.603 181.934C414.201 183.428 415 185.47 415 188.062C415 191.444 413.713 194.124 411.138 196.101C408.563 198.034 405.256 199 401.217 199Z" fill="#1A1C28"/>
</g>
<defs>
<filter id="filter0_dd_804_2058" x="0.771225" y="0.862755" width="659.458" height="541.458" filterUnits="userSpaceOnUse" color-interpolation-filters="sRGB">
<feFlood flood-opacity="0" result="BackgroundImageFix"/>
<feColorMatrix in="SourceAlpha" type="matrix" values="0 0 0 0 0 0 0 0 0 0 0 0 0 0 0 0 0 0 127 0" result="hardAlpha"/>
<feOffset dy="98.0915"/>
<feGaussianBlur stdDeviation="122.614"/>
<feColorMatrix type="matrix" values="0 0 0 0 0.01375 0 0 0 0 0.01875 0 0 0 0 0.04625 0 0 0 0.6 0"/>
<feBlend mode="normal" in2="BackgroundImageFix" result="effect1_dropShadow_804_2058"/>
<feColorMatrix in="SourceAlpha" type="matrix" values="0 0 0 0 0 0 0 0 0 0 0 0 0 0 0 0 0 0 127 0" result="hardAlpha"/>
<feOffset dx="3.90274" dy="7.80547"/>
<feGaussianBlur stdDeviation="23.4164"/>
<feComposite in2="hardAlpha" operator="out"/>
<feColorMatrix type="matrix" values="0 0 0 0 0.096 0 0 0 0 0.106105 0 0 0 0 0.144 0 0 0 0.25 0"/>
<feBlend mode="normal" in2="effect1_dropShadow_804_2058" result="effect2_dropShadow_804_2058"/>
<feBlend mode="normal" in="SourceGraphic" in2="effect2_dropShadow_804_2058" result="shape"/>
</filter>
</defs>
</svg>
