<svg width="32" height="32" viewBox="0 0 32 32" fill="none" xmlns="http://www.w3.org/2000/svg">
<path d="M21.5 4.5H10.5C7.18629 4.5 4.5 7.18629 4.5 10.5V21.5C4.5 24.8137 7.18629 27.5 10.5 27.5H21.5C24.8137 27.5 27.5 24.8137 27.5 21.5V10.5C27.5 7.18629 24.8137 4.5 21.5 4.5Z" stroke="#7C83A1" stroke-linecap="round" stroke-linejoin="round"/>
<path fill-rule="evenodd" clip-rule="evenodd" d="M16.5 22.125C17.1213 22.125 17.625 21.6213 17.625 21V15C17.625 14.3787 17.1213 13.875 16.5 13.875C15.8787 13.875 15.375 14.3787 15.375 15V21C15.375 21.6213 15.8787 22.125 16.5 22.125Z" fill="#7C83A1"/>
<path d="M18 10.5C18 9.67157 17.3284 9 16.5 9C15.6716 9 15 9.67157 15 10.5C15 11.3284 15.6716 12 16.5 12C17.3284 12 18 11.3284 18 10.5Z" fill="#7C83A1"/>
</svg>
