<svg width="33" height="32" viewBox="0 0 33 32" fill="none" xmlns="http://www.w3.org/2000/svg">
<path d="M21.167 16C21.167 18.4853 19.1523 20.5 16.667 20.5V21.5C19.7046 21.5 22.167 19.0376 22.167 16H21.167ZM16.667 20.5C14.1817 20.5 12.167 18.4853 12.167 16H11.167C11.167 19.0376 13.6294 21.5 16.667 21.5V20.5ZM12.167 16C12.167 13.5147 14.1817 11.5 16.667 11.5V10.5C13.6294 10.5 11.167 12.9624 11.167 16H12.167ZM16.667 11.5C19.1523 11.5 21.167 13.5147 21.167 16H22.167C22.167 12.9624 19.7046 10.5 16.667 10.5V11.5ZM11.167 5H22.167V4H11.167V5ZM22.167 5C25.2046 5 27.667 7.46243 27.667 10.5H28.667C28.667 6.91015 25.7568 4 22.167 4V5ZM27.667 10.5V21.5H28.667V10.5H27.667ZM27.667 21.5C27.667 24.5376 25.2046 27 22.167 27V28C25.7568 28 28.667 25.0899 28.667 21.5H27.667ZM22.167 27H11.167V28H22.167V27ZM11.167 27C8.12943 27 5.66699 24.5376 5.66699 21.5H4.66699C4.66699 25.0899 7.57714 28 11.167 28V27ZM5.66699 21.5V10.5H4.66699V21.5H5.66699ZM5.66699 10.5C5.66699 7.46243 8.12943 5 11.167 5V4C7.57714 4 4.66699 6.91015 4.66699 10.5H5.66699Z" fill="#7C83A1"/>
<path d="M23.167 11C23.9954 11 24.667 10.3284 24.667 9.5C24.667 8.67157 23.9954 8 23.167 8C22.3386 8 21.667 8.67157 21.667 9.5C21.667 10.3284 22.3386 11 23.167 11Z" fill="#7C83A1"/>
</svg>
