<?xml version="1.0" encoding="utf-8"?>
<!-- Generator: Adobe Illustrator 25.0.1, SVG Export Plug-In . SVG Version: 6.00 Build 0)  -->
<svg version="1.1" id="Layer_1" xmlns="http://www.w3.org/2000/svg" xmlns:xlink="http://www.w3.org/1999/xlink" x="0px" y="0px"
	 viewBox="0 0 112 40" style="enable-background:new 0 0 112 40;" xml:space="preserve">
<style type="text/css">
	.st0{fill:#C2C1C1;}
	.st1{fill:#1D203F;}
	.st2{fill:#313F63;}
	.st3{fill:#FFFFFF;}
	.st4{fill:#7E839F;}
	.st5{fill:#020203;}
</style>
<g>
	<path class="st4" d="M53.84,5.41c0.19-0.47,0.6-1.16,0.86-1.52c0,0-0.57-1-1.57-1.76c-0.64-0.48-1.42-0.85-2.33-1.1
		c-0.89-0.25-1.9-0.37-3.01-0.37h-8.58v16.72h5.09v-5.73h2.41l3.57,5.73h2.58h3.2l-4.19-6.49c0.38-0.16,0.74-0.36,1.06-0.58
		c0.16-0.11,0.09-0.05,0.24-0.18c-0.03-0.31-0.04-0.85-0.04-1.17C53.13,7.64,53.4,6.48,53.84,5.41z M49.28,7.68
		c-0.45,0.34-1.13,0.52-2,0.52H44.3V4.24h2.94c0.43,0,0.83,0.05,1.18,0.15c0.33,0.09,0.61,0.23,0.83,0.39
		c0.22,0.17,0.39,0.37,0.51,0.61c0.12,0.25,0.18,0.53,0.18,0.84C49.94,6.87,49.72,7.34,49.28,7.68z"/>
	<path class="st4" d="M63.05,8.04l4.18,2.8c-0.04,0.32-0.34,1.06-0.49,1.33c-0.19,0.32-0.45,0.6-0.77,0.82
		c-0.33,0.23-0.73,0.41-1.19,0.54c-0.47,0.13-1,0.2-1.57,0.2c-0.68,0-1.3-0.11-1.84-0.32c-0.54-0.21-1-0.51-1.38-0.91
		c-0.39-0.4-0.69-0.9-0.9-1.49c-0.21-0.6-0.32-1.29-0.32-2.05c0-0.75,0.1-1.43,0.31-2.02c0.2-0.57,0.49-1.06,0.86-1.46
		c0.36-0.38,0.81-0.68,1.33-0.88c0.52-0.21,1.12-0.31,1.79-0.31c0.97,0,1.79,0.19,2.43,0.56c0.64,0.37,1.08,0.88,1.34,1.55l0.11,0.3
		h4.81l-0.09-0.5c-0.15-0.83-0.46-1.6-0.95-2.29c-0.48-0.69-1.11-1.28-1.87-1.77c-0.75-0.48-1.63-0.86-2.61-1.12
		c-0.98-0.26-2.05-0.39-3.18-0.39c-1.41,0-2.7,0.2-3.83,0.59c-1.14,0.39-2.13,0.96-2.94,1.68c-0.46,0.41-0.86,0.88-1.19,1.39
		c-0.26,0.39-0.48,0.81-0.67,1.26C53.99,6.59,53.78,7.74,53.78,9c0,0.31,0.01,0.61,0.04,0.91c0.08,0.93,0.28,1.79,0.6,2.56
		c0.43,1.04,1.06,1.93,1.87,2.65c0.81,0.73,1.81,1.29,2.96,1.68c1.15,0.38,2.45,0.58,3.88,0.58c1.31,0,2.52-0.16,3.58-0.48
		c1.07-0.32,2-0.79,2.76-1.4c0.76-0.61,1.35-1.35,1.75-2.22c0.4-0.86,0.6-1.83,0.6-2.89V8.04H63.05z"/>
	<polygon class="st4" points="97.91,0.65 93.91,6.95 89.89,0.65 86.99,0.65 86.99,4.37 91.36,11.22 91.36,17.38 96.45,17.38 
		96.45,11.22 103.5,0.65 	"/>
	<polygon class="st4" points="72.53,0.65 72.53,17.38 86.3,17.38 86.3,13.64 77.62,13.64 77.62,10.7 84.5,10.7 84.5,7.17 
		77.62,7.17 77.62,4.39 86.3,4.39 86.3,0.65 	"/>
	<path class="st4" d="M19.2,13.52c-0.26,0.14-0.59,0.26-0.96,0.34c-0.39,0.08-0.82,0.13-1.29,0.13c-0.52,0-1-0.04-1.42-0.13
		c-0.41-0.08-0.77-0.2-1.07-0.35c-0.28-0.14-0.51-0.31-0.68-0.51c-0.16-0.19-0.26-0.4-0.29-0.64l-0.06-0.39H8.5l0.02,0.45
		c0.04,0.77,0.27,1.47,0.68,2.1c0.41,0.62,0.99,1.16,1.71,1.59c0.71,0.43,1.58,0.76,2.56,0.99c0.97,0.22,2.07,0.34,3.25,0.34
		c1.25,0,2.39-0.12,3.39-0.36c1.02-0.24,1.9-0.59,2.62-1.05c0.51-0.32,0.95-0.7,1.3-1.12V9.41c-0.14-0.15-0.3-0.3-0.47-0.43l0,0
		C23.08,8.59,22.45,8.26,21.7,8c-0.73-0.26-1.6-0.48-2.6-0.64l-2.31-0.39C15.75,6.79,15,6.58,14.57,6.33
		c-0.35-0.2-0.51-0.45-0.51-0.78c0-0.21,0.06-0.4,0.17-0.57c0.12-0.18,0.29-0.32,0.51-0.45c0.24-0.13,0.53-0.24,0.88-0.31
		c0.36-0.08,0.77-0.12,1.23-0.12c0.43,0,0.84,0.04,1.2,0.12c0.35,0.08,0.66,0.19,0.91,0.34c0.25,0.14,0.45,0.31,0.61,0.51
		c0.15,0.19,0.24,0.4,0.28,0.63l0.06,0.38h4.14V3.62c0,0-0.01-0.01-0.01-0.01c-0.41-0.61-0.97-1.14-1.67-1.58
		c-0.69-0.43-1.52-0.77-2.46-1.01c-0.93-0.24-1.97-0.36-3.07-0.36c-1.15,0-2.22,0.12-3.17,0.35c-0.96,0.24-1.8,0.59-2.49,1.04
		c-0.7,0.45-1.24,1.01-1.63,1.64C9.16,4.33,8.96,5.04,8.96,5.82c0,1.27,0.49,2.31,1.45,3.11c0.94,0.78,2.35,1.33,4.18,1.63l2.5,0.42
		c0.56,0.09,1.04,0.2,1.43,0.31c0.37,0.11,0.67,0.23,0.9,0.36c0.19,0.11,0.33,0.24,0.42,0.37c0.09,0.13,0.13,0.28,0.13,0.45
		c0,0.21-0.06,0.39-0.19,0.56C19.64,13.22,19.45,13.38,19.2,13.52z"/>
	<path class="st4" d="M23.57,26.21L23.57,26.21c-0.49-0.38-1.12-0.71-1.87-0.98c-0.73-0.26-1.6-0.48-2.6-0.64l-2.31-0.39
		c-1.04-0.18-1.79-0.39-2.22-0.64c-0.35-0.2-0.51-0.45-0.51-0.78c0-0.21,0.06-0.4,0.17-0.57c0.12-0.18,0.29-0.32,0.51-0.45
		c0.24-0.13,0.53-0.24,0.88-0.31c0.36-0.08,0.77-0.12,1.23-0.12c0.43,0,0.84,0.04,1.2,0.12c0.35,0.08,0.66,0.19,0.91,0.34
		c0.25,0.14,0.45,0.31,0.61,0.51c0.15,0.19,0.24,0.4,0.28,0.63l0.06,0.38h4.12l0-2.5c-0.41-0.6-0.96-1.13-1.66-1.56
		c-0.69-0.43-1.52-0.77-2.46-1.01c-0.93-0.24-1.97-0.36-3.07-0.36c-1.15,0-2.22,0.12-3.17,0.35c-0.96,0.24-1.8,0.59-2.49,1.04
		c-0.7,0.45-1.24,1.01-1.63,1.64c-0.38,0.64-0.58,1.35-0.58,2.13c0,1.27,0.49,2.31,1.45,3.11c0.94,0.78,2.35,1.33,4.18,1.63
		l2.5,0.42c0.56,0.09,1.04,0.2,1.43,0.31c0.37,0.11,0.67,0.23,0.9,0.36c0.19,0.11,0.33,0.24,0.42,0.37
		c0.09,0.13,0.13,0.28,0.13,0.45c0,0.21-0.06,0.39-0.19,0.56c-0.14,0.18-0.33,0.34-0.58,0.48c-0.26,0.14-0.59,0.26-0.96,0.34
		c-0.39,0.08-0.82,0.13-1.29,0.13c-0.52,0-1-0.04-1.42-0.13c-0.41-0.08-0.77-0.2-1.07-0.35c-0.28-0.14-0.51-0.31-0.68-0.51
		c-0.16-0.19-0.26-0.4-0.29-0.64l-0.06-0.39H8.5l0.02,0.45c0.04,0.77,0.27,1.47,0.68,2.1c0.41,0.62,0.99,1.16,1.71,1.59
		c0.71,0.43,1.58,0.76,2.56,0.99c0.97,0.22,2.07,0.34,3.25,0.34c1.25,0,2.39-0.12,3.39-0.36c1.02-0.24,1.9-0.59,2.62-1.05
		c0.51-0.32,0.94-0.69,1.29-1.11l-0.01-5.52C23.89,26.48,23.74,26.34,23.57,26.21z"/>
	<polygon class="st4" points="38.5,4.4 38.5,0.66 24.73,0.66 24.73,3.62 24.73,6.09 24.73,9.41 24.73,14.9 24.73,17.38 38.5,17.38 
		38.5,13.64 29.82,13.64 29.82,10.71 36.69,10.71 36.69,7.18 29.82,7.18 29.82,4.4 	"/>
	<polygon class="st4" points="37.34,17.92 37.34,24.29 29.79,24.29 29.79,17.92 24.71,17.92 24.71,20.82 24.71,23.32 24.71,26.63 
		24.72,32.15 24.71,34.67 29.79,39.32 29.79,28.03 37.34,28.03 37.34,39.35 42.43,34.64 42.43,17.92 	"/>
	<polygon class="st4" points="53.82,28.07 48.76,17.92 43.14,17.92 43.14,34.64 47.93,39.35 47.93,25.42 52.14,33.73 55.52,33.73 
		59.71,25.42 59.71,39.35 64.5,34.64 64.5,17.92 58.89,17.92 	"/>
	<polygon class="st4" points="65.19,34.64 70.28,39.35 70.28,17.92 65.19,17.92 	"/>
	<path class="st4" d="M83.08,17.92c0.47,0.09,0.82,0.15,1.35,0.34c2.17,0.78,3.48,2.18,4.16,3.4h2.73v17.69l5.09-4.71V21.66h5.75
		v-3.74C102.16,17.92,83.08,17.92,83.08,17.92z"/>
	<path class="st4" d="M88.39,22.71c-0.16-0.37-0.34-0.73-0.56-1.06c-0.37-0.58-0.83-1.11-1.36-1.56l0,0
		c-0.84-0.71-1.87-1.26-3.09-1.63c-1.08-0.33-2.31-0.51-3.66-0.54c-0.14,0-0.28-0.01-0.42-0.01h-8.25v16.73h8.25
		c1.52,0,2.9-0.19,4.1-0.56c1.21-0.38,2.25-0.94,3.09-1.66c0.83-0.72,1.47-1.63,1.91-2.68c0.42-1.04,0.64-2.24,0.64-3.57
		C89.04,24.89,88.82,23.73,88.39,22.71z M82.44,29.74L82.44,29.74c-0.87,0.78-2.11,1.16-3.78,1.16h-2.4v-9.25v-0.01h2.4
		c0.11,0,0.21,0,0.32,0.01c0.69,0.02,1.31,0.12,1.87,0.3c0.62,0.2,1.15,0.49,1.57,0.87c0.43,0.38,0.76,0.86,0.99,1.42
		c0.24,0.57,0.36,1.24,0.36,1.98C83.76,27.78,83.32,28.96,82.44,29.74z"/>
</g>
</svg>
