<svg width="112" height="40" viewBox="0 0 112 40" fill="none" xmlns="http://www.w3.org/2000/svg">
<path d="M38.8701 4.35825V6.41894H44.0508V10.3745H38.8701V12.7431H44.7572V16.9356H33.6423V0.165804H44.7572V4.35825H38.8701Z" fill="#7C83A1"/>
<path d="M55.1107 16.9356L51.9788 10.9193H51.9552V16.9356H46.7274V0.165804H54.4985C55.8486 0.165804 57.0025 0.41056 57.9601 0.900072C58.9178 1.3738 59.6321 2.02911 60.103 2.86602C60.5897 3.68714 60.8331 4.61879 60.8331 5.66098C60.8331 6.78213 60.5191 7.77694 59.8911 8.64544C59.2788 9.51393 58.3918 10.1377 57.2301 10.5166L60.8566 16.9356H55.1107ZM51.9552 7.41376H54.0275C54.5299 7.41376 54.9066 7.30322 55.1578 7.08215C55.409 6.84529 55.5346 6.4821 55.5346 5.99259C55.5346 5.55045 55.4012 5.20305 55.1343 4.9504C54.8831 4.69775 54.5142 4.57142 54.0275 4.57142H51.9552V7.41376Z" fill="#7C83A1"/>
<path d="M72.7233 5.89785C72.5192 5.56624 72.2287 5.31359 71.852 5.13989C71.4752 4.9504 71.0199 4.85566 70.4861 4.85566C69.4814 4.85566 68.7043 5.18726 68.1548 5.85047C67.6054 6.49789 67.3306 7.39007 67.3306 8.52701C67.3306 9.83764 67.6368 10.8167 68.249 11.4641C68.8613 12.1115 69.8032 12.4352 71.0749 12.4352C72.2837 12.4352 73.257 11.9457 73.9949 10.9667H69.8268V7.24795H78.3278V12.5063C77.6057 13.7537 76.6088 14.8275 75.3372 15.7276C74.0655 16.6119 72.4564 17.054 70.5097 17.054C68.7828 17.054 67.2757 16.6987 65.9884 15.9881C64.7167 15.2618 63.7355 14.2512 63.0448 12.9563C62.3697 11.6615 62.0322 10.185 62.0322 8.52701C62.0322 6.86898 62.3697 5.39254 63.0448 4.0977C63.7355 2.80286 64.7167 1.80015 65.9884 1.08956C67.26 0.363187 68.7514 0 70.4626 0C72.6448 0 74.4188 0.52899 75.7846 1.58697C77.1661 2.64495 77.9825 4.08191 78.2337 5.89785H72.7233Z" fill="#7C83A1"/>
<path d="M85.4384 4.35825V6.41894H90.6191V10.3745H85.4384V12.7431H91.3256V16.9356H80.2106V0.165804H91.3256V4.35825H85.4384Z" fill="#7C83A1"/>
<path d="M109.309 0.165804L103.327 11.8431V16.9356H98.0997V11.8431L92.1183 0.165804H98.0997L100.761 6.11102L103.422 0.165804H109.309Z" fill="#7C83A1"/>
<path d="M49.0666 23.2302V40H43.8388V33.4626H38.8701V40H33.6423V23.2302H38.8701V29.2702H43.8388V23.2302H49.0666Z" fill="#7C83A1"/>
<path d="M71.4586 23.2302V40H66.2544V31.6388L63.6876 40H59.2133L56.6465 31.6388V40H51.4187V23.2302H57.824L61.4976 33.2968L65.077 23.2302H71.4586Z" fill="#7C83A1"/>
<path d="M79.0453 23.2302V40H73.8175V23.2302H79.0453Z" fill="#7C83A1"/>
<path d="M88.3533 23.2302C90.0959 23.2302 91.6187 23.5855 92.9218 24.2961C94.2405 25.0067 95.2531 25.9936 95.9595 27.2569C96.666 28.5201 97.0192 29.9571 97.0192 31.5677C97.0192 33.1626 96.666 34.5996 95.9595 35.8786C95.2531 37.1577 94.2405 38.1683 92.9218 38.9104C91.6187 39.6368 90.0959 40 88.3533 40H81.4065V23.2302H88.3533ZM87.8823 35.3101C89.0598 35.3101 89.9939 34.9864 90.6846 34.339C91.3754 33.6916 91.7208 32.7678 91.7208 31.5677C91.7208 30.3676 91.3754 29.4439 90.6846 28.7965C89.9939 28.149 89.0598 27.8253 87.8823 27.8253H86.6343V35.3101H87.8823Z" fill="#7C83A1"/>
<path d="M112 23.2302V27.399H107.573V40H102.345V27.399H97.965V23.2302H112Z" fill="#7C83A1"/>
<path d="M16.3435 39.9999C11.7156 39.9999 7.88936 38.9187 4.8648 36.7561C1.87668 34.5569 0.255083 31.3498 0 27.1347H12.8999C13.0821 29.3705 14.066 30.4884 15.8516 30.4884C16.5075 30.4884 17.0541 30.3418 17.4914 30.0486C17.9651 29.7187 18.202 29.2239 18.202 28.5641C18.202 27.6478 17.7101 26.9147 16.7262 26.3649C15.7423 25.7785 14.2118 25.1187 12.1347 24.3857C9.65672 23.506 7.59784 22.6446 5.95802 21.8016C4.35463 20.9586 2.9699 19.7307 1.8038 18.118C0.637708 16.5052 0.0728809 14.4343 0.109321 11.9053C0.109321 9.37618 0.74703 7.23196 2.02245 5.47261C3.3343 3.6766 5.10166 2.32043 7.32453 1.4041C9.58384 0.487773 12.1165 0.0296083 14.9224 0.0296083C19.6596 0.0296083 23.413 1.12921 26.1825 3.3284C28.9884 5.52759 30.4642 8.62479 30.61 12.62H17.5461C17.5096 11.5204 17.2363 10.7323 16.7262 10.2559C16.216 9.77936 15.5965 9.54112 14.8677 9.54112C14.3575 9.54112 13.9385 9.72438 13.6105 10.0909C13.2825 10.4208 13.1186 10.8973 13.1186 11.5204C13.1186 12.4001 13.5923 13.1331 14.5397 13.7196C15.5236 14.2694 17.0724 14.9475 19.1859 15.7538C21.6274 16.6702 23.6316 17.5498 25.1986 18.3929C26.802 19.2359 28.1867 20.4088 29.3528 21.9116C30.5189 23.4144 31.1019 25.302 31.1019 27.5745C31.1019 29.957 30.5189 32.1012 29.3528 34.0071C28.1867 35.8765 26.4922 37.3426 24.2693 38.4055C22.0465 39.4685 19.4045 39.9999 16.3435 39.9999Z" fill="#7C83A1"/>
</svg>
