<svg width="18" height="21" viewBox="0 0 18 21" fill="none" xmlns="http://www.w3.org/2000/svg">
<path d="M15.5882 10.0429L1.15072 0.609109C0.94925 0.478295 0.689375 0.46383 0.474125 0.572632C0.259531 0.681435 0.125 0.895266 0.125 1.12859V19.9961C0.125 20.2294 0.259532 20.4432 0.474782 20.552C0.570594 20.6011 0.67625 20.625 0.78125 20.625C0.910531 20.625 1.03981 20.5879 1.15072 20.5156L15.5882 11.0818C15.7674 10.9648 15.875 10.7705 15.875 10.5623C15.875 10.3542 15.7674 10.1598 15.5882 10.0429ZM1.4375 18.8055V2.31913L14.0539 10.5623L1.4375 18.8055Z" fill="#AAAFC6"/>
<path d="M1.4375 18.8055V2.31913L14.0539 10.5623L1.4375 18.8055Z" fill="#AAAFC6"/>
<line x1="16.875" y1="1.5" x2="16.875" y2="19.625" stroke="#AAAFC6" stroke-width="2" stroke-linecap="round"/>
</svg>
