<svg width="1418" height="1006" viewBox="0 0 1418 1006" fill="none" xmlns="http://www.w3.org/2000/svg">
<g filter="url(#filter0_dd_697_1271)">
<path d="M899.116 668.024C858.431 668.024 823.917 657.738 795.575 637.167C767.689 616.138 746.661 587.567 732.489 551.453C718.318 515.34 711.233 474.883 711.233 430.083C711.233 385.284 718.09 345.513 731.804 310.77C745.975 276.028 767.232 248.828 795.575 229.171C823.917 209.057 858.431 199 899.116 199C939.802 199 974.315 209.057 1002.66 229.171C1031 248.828 1052.03 276.028 1065.74 310.77C1079.91 345.513 1087 385.284 1087 430.083C1087 474.883 1079.91 515.34 1065.74 551.453C1051.57 587.567 1030.31 616.138 1001.97 637.167C974.087 657.738 939.802 668.024 899.116 668.024ZM966.316 430.769C966.316 388.255 960.83 357.17 949.859 337.513C938.887 317.399 921.973 307.342 899.116 307.342C876.259 307.342 859.345 317.399 848.374 337.513C837.403 357.17 831.917 388.255 831.917 430.769C831.917 516.711 854.317 559.682 899.116 559.682C943.916 559.682 966.316 516.711 966.316 430.769Z" fill="#1A1C28"/>
<path d="M677.282 561.053V659.795L331 660.481V636.481L493.513 458.883C512.712 437.855 526.427 419.569 534.655 404.026C543.341 388.484 547.683 373.398 547.683 358.77C547.683 342.77 543.341 330.199 534.655 321.056C525.969 311.913 514.541 307.342 500.37 307.342C486.656 307.342 475.456 312.142 466.77 321.742C458.084 330.884 453.742 344.141 453.742 361.513C453.742 370.198 454.656 380.255 456.484 391.684H337.857C334.657 378.884 333.057 366.084 333.057 353.284C333.057 327.227 339.914 302.313 353.628 278.542C367.8 254.771 387.685 235.571 413.285 220.943C439.342 206.314 469.056 199 502.427 199C533.512 199 561.626 205.4 586.769 218.2C612.368 231 632.254 248.828 646.425 271.685C661.054 294.085 668.368 319.456 668.368 347.798C668.368 378.884 659.911 408.141 642.997 435.569C626.54 462.54 602.083 493.168 569.626 527.454L537.398 561.053H677.282Z" fill="#1A1C28"/>
</g>
<defs>
<filter id="filter0_dd_697_1271" x="0.462036" y="0.677246" width="1417.08" height="1130.1" filterUnits="userSpaceOnUse" color-interpolation-filters="sRGB">
<feFlood flood-opacity="0" result="BackgroundImageFix"/>
<feColorMatrix in="SourceAlpha" type="matrix" values="0 0 0 0 0 0 0 0 0 0 0 0 0 0 0 0 0 0 127 0" result="hardAlpha"/>
<feOffset dy="132.215"/>
<feGaussianBlur stdDeviation="165.269"/>
<feColorMatrix type="matrix" values="0 0 0 0 0.01375 0 0 0 0 0.01875 0 0 0 0 0.04625 0 0 0 0.6 0"/>
<feBlend mode="normal" in2="BackgroundImageFix" result="effect1_dropShadow_697_1271"/>
<feColorMatrix in="SourceAlpha" type="matrix" values="0 0 0 0 0 0 0 0 0 0 0 0 0 0 0 0 0 0 127 0" result="hardAlpha"/>
<feOffset dx="5.2604" dy="10.5208"/>
<feGaussianBlur stdDeviation="31.5624"/>
<feComposite in2="hardAlpha" operator="out"/>
<feColorMatrix type="matrix" values="0 0 0 0 0.096 0 0 0 0 0.106105 0 0 0 0 0.144 0 0 0 0.25 0"/>
<feBlend mode="normal" in2="effect1_dropShadow_697_1271" result="effect2_dropShadow_697_1271"/>
<feBlend mode="normal" in="SourceGraphic" in2="effect2_dropShadow_697_1271" result="shape"/>
</filter>
</defs>
</svg>
