<svg width="740" height="711" viewBox="0 0 740 711" fill="none" xmlns="http://www.w3.org/2000/svg">
<g filter="url(#filter0_dd_801_2944)">
<path d="M389.615 248C385.417 248 381.857 246.925 378.932 244.776C376.055 242.579 373.886 239.595 372.424 235.822C370.961 232.049 370.23 227.822 370.23 223.142C370.23 218.462 370.938 214.307 372.353 210.677C373.815 207.047 376.008 204.206 378.932 202.152C381.857 200.051 385.417 199 389.615 199C393.813 199 397.374 200.051 400.298 202.152C403.222 204.206 405.392 207.047 406.807 210.677C408.269 214.307 409 218.462 409 223.142C409 227.822 408.269 232.049 406.807 235.822C405.345 239.595 403.152 242.579 400.227 244.776C397.35 246.925 393.813 248 389.615 248ZM396.548 223.213C396.548 218.772 395.982 215.524 394.85 213.471C393.719 211.369 391.973 210.319 389.615 210.319C387.257 210.319 385.512 211.369 384.38 213.471C383.248 215.524 382.682 218.772 382.682 223.213C382.682 232.192 384.993 236.681 389.615 236.681C394.237 236.681 396.548 232.192 396.548 223.213Z" fill="#1A1C28"/>
<path d="M366.728 236.825V247.14L331 247.212V244.705L347.767 226.151C349.748 223.954 351.163 222.043 352.012 220.42C352.908 218.796 353.356 217.22 353.356 215.692C353.356 214.02 352.908 212.707 352.012 211.751C351.116 210.796 349.937 210.319 348.475 210.319C347.06 210.319 345.904 210.82 345.008 211.823C344.112 212.778 343.664 214.163 343.664 215.978C343.664 216.885 343.758 217.936 343.947 219.13H331.707C331.377 217.793 331.212 216.456 331.212 215.118C331.212 212.396 331.92 209.793 333.335 207.31C334.797 204.827 336.848 202.821 339.49 201.292C342.178 199.764 345.244 199 348.687 199C351.894 199 354.795 199.669 357.389 201.006C360.03 202.343 362.082 204.206 363.544 206.594C365.053 208.934 365.808 211.584 365.808 214.545C365.808 217.793 364.935 220.849 363.19 223.715C361.492 226.533 358.969 229.732 355.62 233.314L352.295 236.825H366.728Z" fill="#1A1C28"/>
</g>
<defs>
<filter id="filter0_dd_801_2944" x="0.462036" y="0.677246" width="739.076" height="710.076" filterUnits="userSpaceOnUse" color-interpolation-filters="sRGB">
<feFlood flood-opacity="0" result="BackgroundImageFix"/>
<feColorMatrix in="SourceAlpha" type="matrix" values="0 0 0 0 0 0 0 0 0 0 0 0 0 0 0 0 0 0 127 0" result="hardAlpha"/>
<feOffset dy="132.215"/>
<feGaussianBlur stdDeviation="165.269"/>
<feColorMatrix type="matrix" values="0 0 0 0 0.01375 0 0 0 0 0.01875 0 0 0 0 0.04625 0 0 0 0.6 0"/>
<feBlend mode="normal" in2="BackgroundImageFix" result="effect1_dropShadow_801_2944"/>
<feColorMatrix in="SourceAlpha" type="matrix" values="0 0 0 0 0 0 0 0 0 0 0 0 0 0 0 0 0 0 127 0" result="hardAlpha"/>
<feOffset dx="5.2604" dy="10.5208"/>
<feGaussianBlur stdDeviation="31.5624"/>
<feComposite in2="hardAlpha" operator="out"/>
<feColorMatrix type="matrix" values="0 0 0 0 0.096 0 0 0 0 0.106105 0 0 0 0 0.144 0 0 0 0.25 0"/>
<feBlend mode="normal" in2="effect1_dropShadow_801_2944" result="effect2_dropShadow_801_2944"/>
<feBlend mode="normal" in="SourceGraphic" in2="effect2_dropShadow_801_2944" result="shape"/>
</filter>
</defs>
</svg>
