<svg width="72" height="72" viewBox="0 0 72 72" fill="none" xmlns="http://www.w3.org/2000/svg">
<path d="M36 0C16.1496 0 0 16.1496 0 36C0 55.8504 16.1496 72 36 72C55.8504 72 72 55.8504 72 36C72 16.1496 55.8504 0 36 0ZM36 69.6C17.4732 69.6 2.4 54.5268 2.4 36C2.4 17.4732 17.4732 2.4 36 2.4C54.5268 2.4 69.6 17.4732 69.6 36C69.6 54.5268 54.5268 69.6 36 69.6Z" fill="#52597A"/>
<line x1="29.5" y1="20.5" x2="29.5" y2="51.5" stroke="#AAAFC6" stroke-width="3" stroke-linecap="round"/>
<line x1="43.5" y1="20.5" x2="43.5" y2="51.5" stroke="#AAAFC6" stroke-width="3" stroke-linecap="round"/>
</svg>
