<svg width="72" height="72" viewBox="0 0 72 72" fill="none" xmlns="http://www.w3.org/2000/svg">
<path d="M54.676 35.0085L28.276 17.0085C27.9076 16.7589 27.4324 16.7313 27.0388 16.9389C26.6464 17.1465 26.4004 17.5545 26.4004 17.9997V53.9997C26.4004 54.4449 26.6464 54.8529 27.04 55.0605C27.2152 55.1541 27.4084 55.1997 27.6004 55.1997C27.8368 55.1997 28.0732 55.1289 28.276 54.9909L54.676 36.9909C55.0036 36.7677 55.2004 36.3969 55.2004 35.9997C55.2004 35.6025 55.0036 35.2317 54.676 35.0085ZM28.8004 51.7281V20.2713L51.8704 35.9997L28.8004 51.7281Z" fill="#AAAFC6"/>
<path d="M36 0C16.1496 0 0 16.1496 0 36C0 55.8504 16.1496 72 36 72C55.8504 72 72 55.8504 72 36C72 16.1496 55.8504 0 36 0ZM36 69.6C17.4732 69.6 2.4 54.5268 2.4 36C2.4 17.4732 17.4732 2.4 36 2.4C54.5268 2.4 69.6 17.4732 69.6 36C69.6 54.5268 54.5268 69.6 36 69.6Z" fill="#52597A"/>
</svg>
