<svg width="523" height="358" viewBox="0 0 523 358" fill="none" xmlns="http://www.w3.org/2000/svg">
<g filter="url(#filter0_dd_804_1983)">
<path d="M157.374 168.049V179.081C154.823 179.694 152.248 180 149.646 180C144.24 180 140.083 178.698 137.176 176.093C134.268 173.488 132.815 169.606 132.815 164.448V151.807H127V140.775H132.815V131.582H145.974V140.775H156.226V151.807H145.974V163.145C145.974 164.984 146.458 166.287 147.428 167.053C148.448 167.819 150.156 168.202 152.554 168.202L157.374 168.049Z" fill="#1A1C28"/>
<path d="M164.141 140.775H177.3V179.081H164.141V140.775ZM170.644 134.952C168.4 134.952 166.487 134.212 164.906 132.731C163.376 131.25 162.611 129.411 162.611 127.215C162.611 125.019 163.376 123.18 164.906 121.699C166.487 120.166 168.4 119.4 170.644 119.4C172.888 119.4 174.801 120.166 176.382 121.699C177.963 123.18 178.754 125.019 178.754 127.215C178.754 129.36 177.963 131.199 176.382 132.731C174.801 134.212 172.888 134.952 170.644 134.952Z" fill="#1A1C28"/>
<path d="M204.857 180C201.031 180 197.512 179.132 194.299 177.395C191.136 175.608 188.612 173.182 186.724 170.117C184.888 167.053 183.97 163.656 183.97 159.928C183.97 156.199 184.888 152.803 186.724 149.738C188.612 146.674 191.136 144.274 194.299 142.537C197.512 140.749 201.031 139.856 204.857 139.856C208.784 139.856 212.227 140.775 215.185 142.614C218.143 144.452 220.413 146.955 221.994 150.122L212.89 157.093C211.87 155.459 210.722 154.207 209.447 153.339C208.223 152.42 206.744 151.96 205.01 151.96C202.714 151.96 200.878 152.701 199.501 154.182C198.124 155.663 197.435 157.578 197.435 159.928C197.435 162.277 198.124 164.193 199.501 165.674C200.878 167.155 202.714 167.895 205.01 167.895C206.744 167.895 208.223 167.461 209.447 166.593C210.722 165.674 211.87 164.422 212.89 162.839L221.994 169.734C220.413 172.901 218.143 175.403 215.185 177.242C212.227 179.081 208.784 180 204.857 180Z" fill="#1A1C28"/>
<path d="M263.383 164.524H238.9C240.328 167.436 243.185 168.891 247.469 168.891C250.886 168.891 254.227 167.895 257.491 165.903L262.235 174.867C257.695 178.289 252.62 180 247.01 180C242.878 180 239.181 179.132 235.916 177.395C232.652 175.608 230.102 173.207 228.266 170.194C226.429 167.129 225.511 163.707 225.511 159.928C225.511 156.199 226.404 152.803 228.189 149.738C230.025 146.674 232.499 144.274 235.61 142.537C238.722 140.749 242.164 139.856 245.939 139.856C249.611 139.856 252.824 140.673 255.579 142.307C258.333 143.942 260.45 146.163 261.929 148.972C263.459 151.73 264.224 154.744 264.224 158.013C264.224 160.311 263.944 162.482 263.383 164.524ZM245.403 150.198C243.771 150.198 242.317 150.709 241.042 151.73C239.818 152.701 238.951 154.105 238.441 155.944H251.753C251.702 154.207 251.065 152.828 249.841 151.807C248.617 150.734 247.137 150.198 245.403 150.198Z" fill="#1A1C28"/>
<path d="M237.332 76C240.852 76 244.014 76.8683 246.819 78.6048C249.624 80.2902 251.792 82.6397 253.322 85.653C254.903 88.6664 255.694 92.1139 255.694 95.9956C255.694 99.8772 254.903 103.35 253.322 106.415C251.741 109.428 249.548 111.803 246.743 113.54C243.988 115.276 240.852 116.144 237.332 116.144C233.303 116.144 230.039 114.97 227.539 112.62V129.015H214.38V76.9193H226.392V80.9031C228.789 77.6344 232.436 76 237.332 76ZM234.731 104.193C236.771 104.193 238.531 103.478 240.01 102.048C241.489 100.618 242.229 98.6259 242.229 96.0722C242.229 93.5185 241.489 91.5266 240.01 90.0965C238.582 88.6664 236.822 87.9514 234.731 87.9514C232.691 87.9514 230.931 88.6409 229.452 90.0199C228.024 91.3989 227.31 93.3908 227.31 95.9956C227.31 98.6004 228.024 100.618 229.452 102.048C230.931 103.478 232.691 104.193 234.731 104.193Z" fill="#1A1C28"/>
<path d="M287.747 76.9193V88.5643H284.61C281.601 88.5643 279.331 89.3049 277.801 90.786C276.271 92.2161 275.506 94.54 275.506 97.7577V115.225H262.347V76.9193H274.358V80.9797C275.531 79.4986 276.934 78.3494 278.566 77.5322C280.249 76.715 282.06 76.3064 283.998 76.3064C285.375 76.3064 286.625 76.5107 287.747 76.9193Z" fill="#1A1C28"/>
<path d="M309.438 76C314.793 76 319.027 77.4556 322.138 80.3669C325.249 83.2781 326.805 87.4917 326.805 93.0077V115.225H314.793V112.084C311.937 114.791 308.265 116.144 303.776 116.144C301.022 116.144 298.65 115.608 296.661 114.536C294.672 113.463 293.167 112.033 292.147 110.245C291.127 108.407 290.617 106.415 290.617 104.27C290.617 100.694 291.943 97.9109 294.595 95.919C297.298 93.876 300.971 92.8545 305.612 92.8545H313.646V92.2416C313.646 90.7605 313.161 89.5858 312.192 88.7175C311.274 87.7982 309.82 87.3385 307.831 87.3385C306.097 87.3385 304.516 87.7216 303.088 88.4877C301.71 89.2027 300.104 90.3774 298.268 92.0118L292.147 83.6611C294.697 81.0564 297.349 79.1411 300.104 77.9153C302.858 76.6384 305.969 76 309.438 76ZM307.831 106.798C309.514 106.798 310.891 106.313 311.962 105.342C313.085 104.321 313.646 102.942 313.646 101.205V100.899H307.448C306.326 100.899 305.459 101.154 304.847 101.665C304.235 102.176 303.929 102.891 303.929 103.81C303.929 104.729 304.261 105.47 304.924 106.032C305.638 106.542 306.607 106.798 307.831 106.798Z" fill="#1A1C28"/>
<path d="M354.018 116.144C350.192 116.144 346.673 115.276 343.46 113.54C340.297 111.752 337.773 109.326 335.885 106.262C334.049 103.197 333.131 99.8006 333.131 96.0722C333.131 92.3438 334.049 88.9473 335.885 85.8829C337.773 82.8184 340.297 80.4179 343.46 78.6814C346.673 76.8938 350.192 76 354.018 76C357.945 76 361.388 76.9193 364.346 78.758C367.304 80.5967 369.574 83.0993 371.155 86.2659L362.051 93.2376C361.031 91.6032 359.883 90.3519 358.608 89.4836C357.384 88.5643 355.905 88.1046 354.171 88.1046C351.875 88.1046 350.039 88.8452 348.662 90.3263C347.285 91.8075 346.596 93.7228 346.596 96.0722C346.596 98.4216 347.285 100.337 348.662 101.818C350.039 103.299 351.875 104.04 354.171 104.04C355.905 104.04 357.384 103.606 358.608 102.737C359.883 101.818 361.031 100.567 362.051 98.9834L371.155 105.878C369.574 109.045 367.304 111.548 364.346 113.386C361.388 115.225 357.945 116.144 354.018 116.144Z" fill="#1A1C28"/>
<path d="M376.108 84.8103H396V95.8424H376.108V84.8103Z" fill="#1A1C28"/>
</g>
<defs>
<filter id="filter0_dd_804_1983" x="0.34523" y="0.00714874" width="522.31" height="357.31" filterUnits="userSpaceOnUse" color-interpolation-filters="sRGB">
<feFlood flood-opacity="0" result="BackgroundImageFix"/>
<feColorMatrix in="SourceAlpha" type="matrix" values="0 0 0 0 0 0 0 0 0 0 0 0 0 0 0 0 0 0 127 0" result="hardAlpha"/>
<feOffset dy="50.6619"/>
<feGaussianBlur stdDeviation="63.3274"/>
<feColorMatrix type="matrix" values="0 0 0 0 0.01375 0 0 0 0 0.01875 0 0 0 0 0.04625 0 0 0 0.6 0"/>
<feBlend mode="normal" in2="BackgroundImageFix" result="effect1_dropShadow_804_1983"/>
<feColorMatrix in="SourceAlpha" type="matrix" values="0 0 0 0 0 0 0 0 0 0 0 0 0 0 0 0 0 0 127 0" result="hardAlpha"/>
<feOffset dx="2.01567" dy="4.03134"/>
<feGaussianBlur stdDeviation="12.094"/>
<feComposite in2="hardAlpha" operator="out"/>
<feColorMatrix type="matrix" values="0 0 0 0 0.096 0 0 0 0 0.106105 0 0 0 0 0.144 0 0 0 0.25 0"/>
<feBlend mode="normal" in2="effect1_dropShadow_804_1983" result="effect2_dropShadow_804_1983"/>
<feBlend mode="normal" in="SourceGraphic" in2="effect2_dropShadow_804_1983" result="shape"/>
</filter>
</defs>
</svg>
