<svg width="1179" height="611" viewBox="0 0 1179 611" fill="none" xmlns="http://www.w3.org/2000/svg">
<g filter="url(#filter0_dd_804_1984)">
<path d="M231.938 392.165V430C223.18 432.102 214.334 433.153 205.401 433.153C186.833 433.153 172.557 428.687 162.573 419.753C152.589 410.82 147.596 397.507 147.596 379.816V336.462H127.628V298.627H147.596V267.097H192.789V298.627H227.997V336.462H192.789V375.349C192.789 381.655 194.453 386.122 197.781 388.749C201.284 391.377 207.152 392.69 215.385 392.69L231.938 392.165Z" fill="#1A1C28"/>
<path d="M255.179 298.627H300.372V430H255.179V298.627ZM277.513 278.658C269.805 278.658 263.237 276.118 257.807 271.038C252.552 265.958 249.924 259.652 249.924 252.12C249.924 244.588 252.552 238.282 257.807 233.202C263.237 227.947 269.805 225.32 277.513 225.32C285.22 225.32 291.789 227.947 297.219 233.202C302.649 238.282 305.364 244.588 305.364 252.12C305.364 259.477 302.649 265.783 297.219 271.038C291.789 276.118 285.22 278.658 277.513 278.658Z" fill="#1A1C28"/>
<path d="M395.008 433.153C381.871 433.153 369.784 430.176 358.749 424.22C347.889 418.089 339.218 409.769 332.737 399.259C326.431 388.749 323.278 377.101 323.278 364.314C323.278 351.526 326.431 339.878 332.737 329.368C339.218 318.858 347.889 310.625 358.749 304.67C369.784 298.539 381.871 295.474 395.008 295.474C408.496 295.474 420.319 298.627 430.479 304.933C440.639 311.238 448.433 319.822 453.864 330.682L422.597 354.592C419.093 348.987 415.152 344.695 410.773 341.717C406.569 338.564 401.489 336.988 395.534 336.988C387.651 336.988 381.345 339.528 376.616 344.607C371.886 349.687 369.522 356.256 369.522 364.314C369.522 372.371 371.886 378.94 376.616 384.02C381.345 389.099 387.651 391.639 395.534 391.639C401.489 391.639 406.569 390.15 410.773 387.173C415.152 384.02 419.093 379.728 422.597 374.298L453.864 397.945C448.433 408.805 440.639 417.389 430.479 423.694C420.319 430 408.496 433.153 395.008 433.153Z" fill="#1A1C28"/>
<path d="M596.002 380.078H511.923C516.827 390.063 526.636 395.055 541.35 395.055C553.086 395.055 564.56 391.639 575.77 384.808L592.061 415.549C576.471 427.285 559.042 433.153 539.774 433.153C525.585 433.153 512.886 430.176 501.675 424.22C490.465 418.089 481.707 409.856 475.401 399.522C469.095 389.012 465.942 377.276 465.942 364.314C465.942 351.526 469.007 339.878 475.138 329.368C481.444 318.858 489.939 310.625 500.624 304.67C511.309 298.539 523.133 295.474 536.095 295.474C548.707 295.474 559.743 298.276 569.202 303.882C578.66 309.487 585.93 317.107 591.01 326.741C596.265 336.2 598.892 346.534 598.892 357.745C598.892 365.627 597.929 373.072 596.002 380.078ZM534.256 330.945C528.651 330.945 523.659 332.696 519.28 336.2C515.076 339.528 512.098 344.345 510.346 350.651H556.064C555.889 344.695 553.699 339.966 549.495 336.462C545.292 332.784 540.212 330.945 534.256 330.945Z" fill="#1A1C28"/>
<path d="M506.538 76.4736C518.625 76.4736 529.485 79.4514 539.119 85.4071C548.753 91.1875 556.197 99.2451 561.452 109.58C566.883 119.915 569.598 131.738 569.598 145.051C569.598 158.363 566.883 170.275 561.452 180.784C556.022 191.119 548.49 199.264 538.856 205.22C529.397 211.176 518.625 214.153 506.538 214.153C492.7 214.153 481.49 210.125 472.906 202.067V258.295H427.714V79.6266H468.965V93.2895C477.198 82.0789 489.722 76.4736 506.538 76.4736ZM497.605 173.165C504.611 173.165 510.655 170.712 515.734 165.808C520.814 160.903 523.354 154.072 523.354 145.314C523.354 136.555 520.814 129.724 515.734 124.819C510.83 119.915 504.787 117.462 497.605 117.462C490.598 117.462 484.555 119.827 479.475 124.556C474.571 129.286 472.118 136.117 472.118 145.051C472.118 153.984 474.571 160.903 479.475 165.808C484.555 170.712 490.598 173.165 497.605 173.165Z" fill="#1A1C28"/>
<path d="M679.677 79.6266V119.564H668.904C658.569 119.564 650.774 122.104 645.519 127.184C640.264 132.089 637.637 140.059 637.637 151.094V211H592.444V79.6266H633.696V93.5522C637.725 88.4724 642.542 84.5312 648.147 81.7286C653.927 78.9259 660.146 77.5246 666.802 77.5246C671.531 77.5246 675.823 78.2253 679.677 79.6266Z" fill="#1A1C28"/>
<path d="M754.168 76.4736C772.56 76.4736 787.099 81.4658 797.784 91.4502C808.469 101.435 813.811 115.886 813.811 134.804V211H772.56V200.228C762.751 209.512 750.139 214.153 734.724 214.153C725.265 214.153 717.12 212.314 710.289 208.636C703.457 204.957 698.29 200.053 694.787 193.922C691.283 187.616 689.532 180.784 689.532 173.428C689.532 161.166 694.086 151.619 703.195 144.788C712.478 137.781 725.09 134.278 741.03 134.278H768.619V132.176C768.619 127.096 766.955 123.068 763.626 120.09C760.474 116.937 755.481 115.36 748.65 115.36C742.694 115.36 737.264 116.674 732.359 119.301C727.63 121.754 722.112 125.783 715.806 131.388L694.787 102.748C703.545 93.815 712.653 87.2463 722.112 83.0423C731.571 78.6632 742.256 76.4736 754.168 76.4736ZM748.65 182.098C754.43 182.098 759.16 180.434 762.838 177.106C766.692 173.603 768.619 168.873 768.619 162.918V161.867H747.336C743.482 161.867 740.505 162.742 738.403 164.494C736.301 166.246 735.25 168.698 735.25 171.851C735.25 175.004 736.388 177.544 738.665 179.471C741.118 181.222 744.446 182.098 748.65 182.098Z" fill="#1A1C28"/>
<path d="M907.267 214.153C894.13 214.153 882.044 211.176 871.008 205.22C860.148 199.089 851.477 190.769 844.996 180.259C838.69 169.749 835.537 158.101 835.537 145.314C835.537 132.526 838.69 120.878 844.996 110.368C851.477 99.8582 860.148 91.6254 871.008 85.6698C882.044 79.539 894.13 76.4736 907.267 76.4736C920.755 76.4736 932.579 79.6266 942.738 85.9326C952.898 92.2385 960.693 100.822 966.123 111.682L934.856 135.592C931.352 129.987 927.411 125.695 923.032 122.717C918.828 119.564 913.748 117.988 907.793 117.988C899.91 117.988 893.604 120.528 888.875 125.607C884.146 130.687 881.781 137.256 881.781 145.314C881.781 153.371 884.146 159.94 888.875 165.02C893.604 170.099 899.91 172.639 907.793 172.639C913.748 172.639 918.828 171.15 923.032 168.173C927.411 165.02 931.352 160.728 934.856 155.298L966.123 178.945C960.693 189.805 952.898 198.389 942.738 204.694C932.579 211 920.755 214.153 907.267 214.153Z" fill="#1A1C28"/>
<path d="M983.132 106.69H1051.45V144.525H983.132V106.69Z" fill="#1A1C28"/>
</g>
<defs>
<filter id="filter0_dd_804_1984" x="0.972733" y="0.480782" width="1177.13" height="609.989" filterUnits="userSpaceOnUse" color-interpolation-filters="sRGB">
<feFlood flood-opacity="0" result="BackgroundImageFix"/>
<feColorMatrix in="SourceAlpha" type="matrix" values="0 0 0 0 0 0 0 0 0 0 0 0 0 0 0 0 0 0 127 0" result="hardAlpha"/>
<feOffset dy="50.6619"/>
<feGaussianBlur stdDeviation="63.3274"/>
<feColorMatrix type="matrix" values="0 0 0 0 0.01375 0 0 0 0 0.01875 0 0 0 0 0.04625 0 0 0 0.6 0"/>
<feBlend mode="normal" in2="BackgroundImageFix" result="effect1_dropShadow_804_1984"/>
<feColorMatrix in="SourceAlpha" type="matrix" values="0 0 0 0 0 0 0 0 0 0 0 0 0 0 0 0 0 0 127 0" result="hardAlpha"/>
<feOffset dx="2.01567" dy="4.03134"/>
<feGaussianBlur stdDeviation="12.094"/>
<feComposite in2="hardAlpha" operator="out"/>
<feColorMatrix type="matrix" values="0 0 0 0 0.096 0 0 0 0 0.106105 0 0 0 0 0.144 0 0 0 0.25 0"/>
<feBlend mode="normal" in2="effect1_dropShadow_804_1984" result="effect2_dropShadow_804_1984"/>
<feBlend mode="normal" in="SourceGraphic" in2="effect2_dropShadow_804_1984" result="shape"/>
</filter>
</defs>
</svg>
