<svg width="18" height="21" viewBox="0 0 18 21" fill="none" xmlns="http://www.w3.org/2000/svg">
<path d="M2.41178 10.0429L16.8493 0.609109C17.0508 0.478295 17.3106 0.46383 17.5259 0.572632C17.7405 0.681435 17.875 0.895266 17.875 1.12859V19.9961C17.875 20.2294 17.7405 20.4432 17.5252 20.552C17.4294 20.6011 17.3238 20.625 17.2188 20.625C17.0895 20.625 16.9602 20.5879 16.8493 20.5156L2.41178 11.0818C2.23263 10.9648 2.125 10.7705 2.125 10.5623C2.125 10.3542 2.23263 10.1598 2.41178 10.0429ZM16.5625 18.8055V2.31913L3.94609 10.5623L16.5625 18.8055Z" fill="#AAAFC6"/>
<path d="M16.5625 18.8055V2.31913L3.94609 10.5623L16.5625 18.8055Z" fill="#AAAFC6"/>
<line x1="1" y1="-1" x2="19.125" y2="-1" transform="matrix(-4.99559e-08 1 1 3.82475e-08 2.125 0.5)" stroke="#AAAFC6" stroke-width="2" stroke-linecap="round"/>
</svg>
