<svg width="1375" height="621" viewBox="0 0 1375 621" fill="none" xmlns="http://www.w3.org/2000/svg">
<g filter="url(#filter0_dd_697_1188)">
<path d="M293.673 318.923C271.678 318.923 253.494 313.814 239.12 303.596C224.919 293.205 217.212 278.052 216 258.136H277.307C278.173 268.7 282.849 273.982 291.335 273.982C294.452 273.982 297.05 273.289 299.128 271.904C301.379 270.345 302.505 268.007 302.505 264.89C302.505 260.56 300.167 257.096 295.491 254.499C290.815 251.728 283.542 248.61 273.67 245.147C261.894 240.99 252.109 236.921 244.315 232.937C236.695 228.954 230.114 223.152 224.573 215.532C219.031 207.912 216.346 198.127 216.52 186.178C216.52 174.228 219.55 164.097 225.612 155.784C231.846 147.298 240.246 140.89 250.81 136.561C261.547 132.231 273.583 130.066 286.919 130.066C309.432 130.066 327.27 135.262 340.432 145.653C353.767 156.044 360.781 170.678 361.474 189.555H299.388C299.215 184.359 297.916 180.636 295.491 178.385C293.067 176.133 290.122 175.007 286.659 175.007C284.234 175.007 282.243 175.873 280.684 177.605C279.125 179.164 278.346 181.415 278.346 184.359C278.346 188.516 280.597 191.979 285.1 194.75C289.776 197.348 297.136 200.552 307.181 204.362C318.784 208.692 328.309 212.848 335.756 216.831C343.376 220.815 349.957 226.356 355.499 233.457C361.041 240.557 363.812 249.476 363.812 260.214C363.812 271.471 361.041 281.602 355.499 290.607C349.957 299.44 341.904 306.367 331.34 311.389C320.776 316.412 308.22 318.923 293.673 318.923Z" fill="#1A1C28"/>
<path d="M441.745 179.164V201.764H498.895V245.147H441.745V271.124H506.688V317.104H384.074V133.184H506.688V179.164H441.745Z" fill="#1A1C28"/>
<path d="M620.902 317.104L586.352 251.122H586.092V317.104H528.422V133.184H614.148C629.042 133.184 641.771 135.868 652.335 141.237C662.899 146.432 670.779 153.619 675.974 162.798C681.343 171.804 684.027 182.021 684.027 193.452C684.027 205.748 680.564 216.658 673.636 226.183C666.882 235.708 657.097 242.549 644.282 246.705L684.287 317.104H620.902ZM586.092 212.675H608.952C614.494 212.675 618.651 211.463 621.422 209.038C624.193 206.44 625.578 202.457 625.578 197.088C625.578 192.239 624.106 188.429 621.162 185.658C618.391 182.887 614.321 181.502 608.952 181.502H586.092V212.675Z" fill="#1A1C28"/>
<path d="M815.194 196.049C812.942 192.412 809.738 189.641 805.582 187.736C801.425 185.658 796.403 184.619 790.515 184.619C779.431 184.619 770.859 188.256 764.797 195.53C758.736 202.63 755.705 212.415 755.705 224.884C755.705 239.259 759.082 249.996 765.836 257.096C772.59 264.197 782.981 267.747 797.009 267.747C810.344 267.747 821.082 262.379 829.221 251.641H783.241V210.856H877.02V268.527C869.054 282.208 858.056 293.984 844.029 303.856C830.001 313.554 812.249 318.403 790.775 318.403C771.725 318.403 755.099 314.507 740.898 306.713C726.87 298.747 716.046 287.663 708.426 273.462C700.979 259.261 697.256 243.069 697.256 224.884C697.256 206.7 700.979 190.507 708.426 176.306C716.046 162.105 726.87 151.108 740.898 143.315C754.926 135.348 771.378 131.365 790.255 131.365C814.328 131.365 833.897 137.167 848.964 148.77C864.204 160.374 873.21 176.133 875.981 196.049H815.194Z" fill="#1A1C28"/>
<path d="M955.46 179.164V201.764H1012.61V245.147H955.46V271.124H1020.4V317.104H897.79V133.184H1020.4V179.164H955.46Z" fill="#1A1C28"/>
<path d="M1218.78 133.184L1152.8 261.253V317.104H1095.13V261.253L1029.15 133.184H1095.13L1124.49 198.387L1153.84 133.184H1218.78Z" fill="#1A1C28"/>
</g>
<defs>
<filter id="filter0_dd_697_1188" x="0.242676" y="0.612007" width="1434.3" height="620.371" filterUnits="userSpaceOnUse" color-interpolation-filters="sRGB">
<feFlood flood-opacity="0" result="BackgroundImageFix"/>
<feColorMatrix in="SourceAlpha" type="matrix" values="0 0 0 0 0 0 0 0 0 0 0 0 0 0 0 0 0 0 127 0" result="hardAlpha"/>
<feOffset dy="86.3029"/>
<feGaussianBlur stdDeviation="107.879"/>
<feColorMatrix type="matrix" values="0 0 0 0 0.01375 0 0 0 0 0.01875 0 0 0 0 0.04625 0 0 0 0.24 0"/>
<feBlend mode="normal" in2="BackgroundImageFix" result="effect1_dropShadow_697_1188"/>
<feColorMatrix in="SourceAlpha" type="matrix" values="0 0 0 0 0 0 0 0 0 0 0 0 0 0 0 0 0 0 127 0" result="hardAlpha"/>
<feOffset dx="3.43371" dy="6.86741"/>
<feGaussianBlur stdDeviation="20.6022"/>
<feComposite in2="hardAlpha" operator="out"/>
<feColorMatrix type="matrix" values="0 0 0 0 0.096 0 0 0 0 0.106105 0 0 0 0 0.144 0 0 0 0.25 0"/>
<feBlend mode="normal" in2="effect1_dropShadow_697_1188" result="effect2_dropShadow_697_1188"/>
<feBlend mode="normal" in="SourceGraphic" in2="effect2_dropShadow_697_1188" result="shape"/>
</filter>
</defs>
</svg>
