<svg width="1920" height="642" viewBox="0 0 1920 642" fill="none" xmlns="http://www.w3.org/2000/svg">
<g filter="url(#filter0_dd_697_1186)">
<path d="M92.9747 455.949C49.6575 455.949 13.844 445.887 -14.4657 425.763C-42.4343 405.298 -57.6124 375.454 -60 336.229H60.7426C62.448 357.035 71.6572 367.438 88.3701 367.438C94.5096 367.438 99.6258 366.074 103.719 363.345C108.153 360.275 110.37 355.671 110.37 349.531C110.37 341.004 105.765 334.183 96.5561 329.067C87.3469 323.609 73.0215 317.47 53.5799 310.648C30.3864 302.462 11.1153 294.447 -4.23329 286.602C-19.2408 278.757 -32.2019 267.331 -43.1165 252.323C-54.0311 237.316 -59.3178 218.045 -58.9768 194.51C-58.9768 170.976 -53.0078 151.022 -41.07 134.65C-28.7911 117.938 -12.2487 105.318 8.55724 96.7905C29.7042 88.2635 53.4094 84 79.6726 84C124.013 84 159.144 94.2324 185.067 114.697C211.33 135.162 225.144 163.983 226.508 201.161H104.23C103.889 190.929 101.331 183.596 96.5561 179.162C91.781 174.727 85.9826 172.51 79.161 172.51C74.3858 172.51 70.4634 174.216 67.3937 177.627C64.3239 180.696 62.7891 185.13 62.7891 190.929C62.7891 199.115 67.2231 205.936 76.0912 211.394C85.3004 216.51 99.7963 222.82 119.579 230.324C142.431 238.851 161.191 247.037 175.857 254.881C190.865 262.726 203.826 273.641 214.741 287.625C225.655 301.61 231.112 319.175 231.112 340.322C231.112 362.492 225.655 382.446 214.741 400.182C203.826 417.577 187.966 431.22 167.16 441.112C146.354 451.003 121.626 455.949 92.9747 455.949Z" fill="#1A1C28"/>
<path d="M606.131 90.1395V452.367H492.551V311.16H384.599V452.367H271.019V90.1395H384.599V220.603H492.551V90.1395H606.131Z" fill="#1A1C28"/>
<path d="M1092.62 90.1395V452.367H979.554V271.765L923.788 452.367H826.58L770.813 271.765V452.367H657.233V90.1395H796.394L876.207 307.578L953.973 90.1395H1092.62Z" fill="#1A1C28"/>
<path d="M1257.45 90.1395V452.367H1143.87V90.1395H1257.45Z" fill="#1A1C28"/>
<path d="M1459.68 90.1395C1497.54 90.1395 1530.62 97.8138 1558.93 113.162C1587.58 128.511 1609.58 149.829 1624.93 177.115C1640.28 204.402 1647.96 235.44 1647.96 270.23C1647.96 304.679 1640.28 335.718 1624.93 363.345C1609.58 390.973 1587.58 412.802 1558.93 428.833C1530.62 444.522 1497.54 452.367 1459.68 452.367H1308.75V90.1395H1459.68ZM1449.45 351.066C1475.03 351.066 1495.32 344.074 1510.33 330.09C1525.34 316.105 1532.84 296.152 1532.84 270.23C1532.84 244.308 1525.34 224.355 1510.33 210.37C1495.32 196.386 1475.03 189.394 1449.45 189.394H1422.33V351.066H1449.45Z" fill="#1A1C28"/>
<path d="M1973.43 90.1395V180.185H1877.25V452.367H1763.67V180.185H1668.5V90.1395H1973.43Z" fill="#1A1C28"/>
</g>
<defs>
<filter id="filter0_dd_697_1186" x="-198.827" y="0.703556" width="2311.09" height="649.603" filterUnits="userSpaceOnUse" color-interpolation-filters="sRGB">
<feFlood flood-opacity="0" result="BackgroundImageFix"/>
<feColorMatrix in="SourceAlpha" type="matrix" values="0 0 0 0 0 0 0 0 0 0 0 0 0 0 0 0 0 0 127 0" result="hardAlpha"/>
<feOffset dy="55.531"/>
<feGaussianBlur stdDeviation="69.4137"/>
<feColorMatrix type="matrix" values="0 0 0 0 0.01375 0 0 0 0 0.01875 0 0 0 0 0.04625 0 0 0 0.6 0"/>
<feBlend mode="normal" in2="BackgroundImageFix" result="effect1_dropShadow_697_1186"/>
<feColorMatrix in="SourceAlpha" type="matrix" values="0 0 0 0 0 0 0 0 0 0 0 0 0 0 0 0 0 0 127 0" result="hardAlpha"/>
<feOffset dx="2.20939" dy="4.41879"/>
<feGaussianBlur stdDeviation="13.2564"/>
<feComposite in2="hardAlpha" operator="out"/>
<feColorMatrix type="matrix" values="0 0 0 0 0.096 0 0 0 0 0.106105 0 0 0 0 0.144 0 0 0 0.25 0"/>
<feBlend mode="normal" in2="effect1_dropShadow_697_1186" result="effect2_dropShadow_697_1186"/>
<feBlend mode="normal" in="SourceGraphic" in2="effect2_dropShadow_697_1186" result="shape"/>
</filter>
</defs>
</svg>
