<svg width="33" height="32" viewBox="0 0 33 32" fill="none" xmlns="http://www.w3.org/2000/svg">
<path d="M24.4328 12.1928L23.9539 12.0491L23.9477 12.07L23.9432 12.0913L24.4328 12.1928ZM21.1318 12.0434L20.6722 11.8464L20.6689 11.8545L21.1318 12.0434ZM18.7954 15.9285L19.1489 16.282L19.158 16.2729L19.1667 16.2633L18.7954 15.9285ZM14.3533 13.7822H14.8533V13.7662L14.8523 13.7503L14.3533 13.7822ZM10.8621 12.22L11.3355 12.059L11.3328 12.051L11.3298 12.043L10.8621 12.22ZM10.4546 18.3465L10.8645 18.0601L10.8611 18.0554L10.4546 18.3465ZM20.0044 19.9494L20.358 19.5958L20.3513 19.5894L20.0044 19.9494ZM24.786 21.0226L25.264 20.8755L25.2604 20.8645L24.786 21.0226ZM23.1831 18.7948L22.8013 19.1178L22.8082 19.1256L23.1831 18.7948ZM21.879 17.4228L22.295 17.1454L22.2849 17.1302L22.2737 17.1158L21.879 17.4228ZM21.879 16.5805L22.2978 16.8537L22.379 16.7292V16.5805H21.879ZM10.833 5H21.833V4H10.833V5ZM21.833 5C24.8706 5 27.333 7.46243 27.333 10.5H28.333C28.333 6.91015 25.4229 4 21.833 4V5ZM27.333 10.5V21.5H28.333V10.5H27.333ZM27.333 21.5C27.333 24.5376 24.8706 27 21.833 27V28C25.4229 28 28.333 25.0899 28.333 21.5H27.333ZM21.833 27H10.833V28H21.833V27ZM10.833 27C7.79544 27 5.33301 24.5376 5.33301 21.5H4.33301C4.33301 25.0899 7.24316 28 10.833 28V27ZM5.33301 21.5V10.5H4.33301V21.5H5.33301ZM5.33301 10.5C5.33301 7.46243 7.79544 5 10.833 5V4C7.24316 4 4.33301 6.91015 4.33301 10.5H5.33301ZM24.9117 12.3365C24.9872 12.0848 25.0374 11.718 24.8154 11.4046C24.5878 11.0833 24.2058 11 23.8623 11V12C23.9669 12 24.0187 12.0136 24.0363 12.0201C24.0438 12.0228 24.0407 12.0227 24.0319 12.0163C24.0226 12.0095 24.0105 11.9984 23.9993 11.9826C23.9752 11.9485 23.9755 11.9229 23.9759 11.9315C23.9763 11.944 23.9743 11.9812 23.9539 12.0491L24.9117 12.3365ZM23.8623 11H21.9605V12H23.8623V11ZM21.9605 11C21.622 11 21.3345 11.0916 21.1045 11.2678C20.8817 11.4385 20.7529 11.6582 20.6723 11.8464L21.5914 12.2403C21.633 12.1432 21.674 12.0912 21.7127 12.0616C21.7443 12.0374 21.8099 12 21.9605 12V11ZM21.1318 12.0434C20.6689 11.8545 20.6689 11.8544 20.6689 11.8544C20.6689 11.8544 20.669 11.8543 20.669 11.8543C20.669 11.8543 20.669 11.8543 20.6689 11.8544C20.6689 11.8545 20.6688 11.8548 20.6686 11.8552C20.6683 11.856 20.6677 11.8574 20.6669 11.8593C20.6653 11.8631 20.6628 11.8692 20.6594 11.8773C20.6526 11.8936 20.6422 11.9182 20.6284 11.9505C20.6006 12.015 20.559 12.11 20.5048 12.2291C20.3961 12.4674 20.2369 12.8015 20.036 13.1818C19.6309 13.9487 19.0694 14.8779 18.424 15.5936L19.1667 16.2633C19.8933 15.4576 20.5 14.4443 20.9202 13.6489C21.1319 13.2482 21.2996 12.8962 21.4147 12.6439C21.4722 12.5176 21.5167 12.416 21.5471 12.3453C21.5623 12.31 21.5739 12.2824 21.5819 12.2633C21.5859 12.2537 21.589 12.2463 21.5912 12.2411C21.5922 12.2385 21.5931 12.2365 21.5937 12.235C21.594 12.2342 21.5942 12.2337 21.5944 12.2332C21.5945 12.233 21.5946 12.2328 21.5946 12.2326C21.5947 12.2326 21.5947 12.2325 21.5947 12.2324C21.5948 12.2323 21.5948 12.2323 21.1318 12.0434ZM18.4418 15.5749C18.2166 15.8001 18.0879 15.9137 17.9989 15.9734C17.9313 16.0188 17.9179 16.0126 17.9124 16.0126V17.0126C18.3975 17.0126 18.7315 16.6995 19.1489 16.282L18.4418 15.5749ZM17.9124 16.0126C18.0398 16.0126 18.1082 16.0805 18.1267 16.107C18.1437 16.1313 18.1135 16.1062 18.1135 15.9692H17.1135C17.1135 16.4747 17.3645 17.0126 17.9124 17.0126V16.0126ZM18.1135 15.9692V12.1928H17.1135V15.9692H18.1135ZM18.1135 12.1928C18.1135 11.9292 18.0829 11.6115 17.8932 11.3611C17.6747 11.0726 17.3517 11 17.0701 11V12C17.1336 12 17.1534 12.0084 17.1486 12.0066C17.1368 12.0021 17.1136 11.988 17.0961 11.9649C17.0826 11.9471 17.0887 11.9449 17.0973 11.9845C17.1061 12.025 17.1135 12.0907 17.1135 12.1928H18.1135ZM17.0701 11H14.0816V12H17.0701V11ZM14.0816 11C13.5162 11 13.0926 11.4453 13.0926 11.9347H14.0926C14.0926 11.9608 14.0867 11.9775 14.0834 11.985C14.0799 11.9928 14.0765 11.9965 14.075 11.998C14.0731 11.9999 14.0714 12.0008 14.0707 12.0011C14.0695 12.0016 14.0722 12 14.0816 12V11ZM13.0926 11.9347C13.0926 12.1891 13.1918 12.3811 13.2871 12.5207C13.332 12.5864 13.3818 12.6486 13.4219 12.6985C13.4651 12.7524 13.5022 12.7983 13.5397 12.8492C13.6694 13.0253 13.8203 13.2815 13.8543 13.814L14.8523 13.7503C14.8048 13.0059 14.5754 12.5693 14.345 12.2564C14.2925 12.1851 14.2409 12.1214 14.2017 12.0725C14.1593 12.0197 14.1329 11.986 14.1129 11.9566C14.0783 11.906 14.0926 11.9112 14.0926 11.9347H13.0926ZM13.8533 13.7822V16.5805H14.8533V13.7822H13.8533ZM13.8533 16.5805C13.8533 16.7213 13.8469 16.8161 13.8377 16.8788C13.8281 16.9447 13.8191 16.9488 13.8316 16.9263C13.8394 16.9125 13.8539 16.891 13.8779 16.8686C13.9023 16.8457 13.9296 16.8285 13.956 16.8168C14.0035 16.7958 14.0311 16.8005 14.0001 16.8005V17.8005C14.0914 17.8005 14.2243 17.7916 14.3609 17.7311C14.5123 17.6641 14.6277 17.5522 14.7051 17.4132C14.8333 17.1833 14.8533 16.8802 14.8533 16.5805H13.8533ZM14.0001 16.8005C14.0637 16.8005 14.0683 16.8245 13.9952 16.7763C13.9317 16.7344 13.8431 16.6599 13.7321 16.5435C13.511 16.3119 13.2452 15.9611 12.9605 15.5116C12.393 14.6153 11.785 13.381 11.3355 12.059L10.3887 12.3809C10.863 13.7758 11.5048 15.0818 12.1157 16.0465C12.4202 16.5275 12.7258 16.9375 13.0086 17.2339C13.1495 17.3815 13.296 17.513 13.4445 17.611C13.5833 17.7026 13.7768 17.8005 14.0001 17.8005V16.8005ZM11.3298 12.043C11.2318 11.7842 11.1063 11.5046 10.8824 11.3013C10.6325 11.0744 10.3296 11 10.0063 11V12C10.172 12 10.202 12.0343 10.2102 12.0417C10.2444 12.0728 10.3023 12.1532 10.3945 12.3969L11.3298 12.043ZM10.0063 11H8.10452V12H10.0063V11ZM8.10452 11C7.76444 11 7.44026 11.0801 7.21208 11.3205C6.98677 11.5579 6.95247 11.8506 6.95247 12.0434H7.95247C7.95247 12.0013 7.95679 11.9821 7.9581 11.9776C7.95845 11.9764 7.95373 11.9917 7.93739 12.0089C7.92076 12.0264 7.91116 12.0259 7.93047 12.0195C7.95319 12.012 8.00608 12 8.10452 12V11ZM6.95247 12.0434C6.95247 12.2385 7.00756 12.5421 7.10663 12.9071C7.20954 13.2862 7.37037 13.769 7.60512 14.3366C8.07484 15.4724 8.84401 16.956 10.0481 18.6376L10.8611 18.0554C9.70152 16.4359 8.96963 15.0194 8.52921 13.9544C8.30888 13.4217 8.16236 12.9791 8.07171 12.6451C7.9772 12.2969 7.95247 12.0996 7.95247 12.0434H6.95247ZM10.0448 18.6329C11.6915 20.9895 14.0456 22.3241 16.2551 22.3241V21.3241C14.4437 21.3241 12.3692 20.2135 10.8644 18.0601L10.0448 18.6329ZM16.2551 22.3241C16.8601 22.3241 17.3394 22.2636 17.665 22.0465C18.07 21.7765 18.1135 21.367 18.1135 21.0905H17.1135C17.1135 21.1865 17.1044 21.2208 17.1014 21.229C17.1011 21.2299 17.103 21.2247 17.1082 21.2181C17.1135 21.2114 17.1162 21.2106 17.1103 21.2145C17.0945 21.225 17.0364 21.2561 16.89 21.2821C16.7457 21.3077 16.5417 21.3241 16.2551 21.3241V22.3241ZM18.1135 21.0905V19.3789H17.1135V21.0905H18.1135ZM18.1135 19.3789C18.1135 19.2549 18.1201 19.1821 18.128 19.1405C18.1358 19.0993 18.1387 19.1227 18.1069 19.1623C18.0902 19.1831 18.0697 19.201 18.048 19.2145C18.0274 19.2273 18.0121 19.2321 18.0084 19.2332C18.0054 19.234 18.0113 19.2321 18.0308 19.2301C18.0501 19.2282 18.0776 19.2268 18.1161 19.2268V18.2268C17.9145 18.2268 17.5629 18.2427 17.3273 18.5359C17.2191 18.6706 17.1702 18.823 17.1453 18.955C17.1205 19.0866 17.1135 19.2312 17.1135 19.3789H18.1135ZM18.1161 19.2268C18.19 19.2268 18.5396 19.232 19.6574 20.3094L20.3513 19.5894C19.2141 18.4933 18.6128 18.2268 18.1161 18.2268V19.2268ZM19.6508 20.303C19.9648 20.617 20.2139 20.8884 20.4244 21.1217C20.6299 21.3496 20.8136 21.5582 20.9777 21.7233C21.1437 21.8902 21.3205 22.0449 21.5282 22.1547C21.747 22.2703 21.9767 22.3241 22.2322 22.3241V21.3241C22.1277 21.3241 22.0602 21.3048 21.9954 21.2706C21.9196 21.2305 21.8264 21.1585 21.6868 21.0181C21.5452 20.8758 21.3875 20.6965 21.1669 20.4519C20.9511 20.2127 20.6892 19.9271 20.3579 19.5959L19.6508 20.303ZM22.2322 22.3241H24.134V21.3241H22.2322V22.3241ZM24.134 22.3241C24.4678 22.3241 24.8499 22.2432 25.1038 21.9482C25.375 21.6332 25.3726 21.2287 25.2639 20.8755L24.3081 21.1696C24.3347 21.2558 24.334 21.3017 24.3323 21.3165C24.3313 21.3257 24.3318 21.3122 24.3459 21.2958C24.3578 21.2821 24.36 21.2887 24.3272 21.2999C24.2925 21.3117 24.2306 21.3241 24.134 21.3241V22.3241ZM25.2604 20.8645C25.1462 20.5219 24.9097 20.1438 24.6264 19.7596C24.3366 19.3667 23.9687 18.9294 23.558 18.464L22.8082 19.1256C23.2125 19.5839 23.5578 19.9955 23.8216 20.3532C24.0918 20.7195 24.2493 20.9935 24.3117 21.1807L25.2604 20.8645ZM23.5648 18.4718C23.3225 18.1855 23.0258 17.8966 22.7841 17.6598C22.5172 17.3985 22.3535 17.2331 22.295 17.1454L21.463 17.7001C21.5947 17.8976 21.8588 18.1534 22.0844 18.3743C22.3351 18.6198 22.5954 18.8743 22.8014 19.1177L23.5648 18.4718ZM22.2737 17.1158C22.1597 16.9692 22.1988 16.9619 22.194 17.0217C22.1923 17.0416 22.1869 17.0429 22.2019 17.0124C22.2187 16.9781 22.2463 16.9325 22.2978 16.8537L21.4602 16.3074C21.372 16.4426 21.2194 16.6673 21.1972 16.9409C21.172 17.2519 21.313 17.5095 21.4843 17.7297L22.2737 17.1158ZM22.379 16.5805C22.3759 16.6364 22.3598 16.7177 22.3517 16.7435C22.3463 16.7582 22.3366 16.782 22.3324 16.7911C22.3246 16.808 22.3175 16.8207 22.3151 16.8249C22.3094 16.8351 22.3047 16.8424 22.3039 16.8437C22.3014 16.8478 22.3 16.8497 22.3016 16.8473C22.3041 16.8436 22.3091 16.8362 22.3175 16.824C22.334 16.8 22.3583 16.7648 22.3907 16.7179C22.4548 16.625 22.5472 16.4912 22.6588 16.3274C22.8818 16 23.1824 15.5519 23.4909 15.0681C23.7987 14.5854 24.1178 14.0618 24.3761 13.5843C24.6254 13.1236 24.8481 12.6527 24.9224 12.2943L23.9432 12.0913C23.9021 12.2898 23.7478 12.6442 23.4966 13.1085C23.2544 13.556 22.9495 14.0571 22.6477 14.5305C22.3466 15.0027 22.0521 15.4418 21.8323 15.7643C21.7225 15.9255 21.6316 16.0573 21.5678 16.1496C21.5362 16.1954 21.5104 16.2327 21.4927 16.2585C21.4841 16.2711 21.476 16.283 21.4697 16.2925C21.4669 16.2967 21.4622 16.3037 21.4574 16.3114C21.4555 16.3144 21.45 16.3232 21.4437 16.3343C21.4411 16.339 21.4338 16.3521 21.4257 16.3693C21.4215 16.3786 21.4117 16.4025 21.4064 16.4173C21.3982 16.4432 21.3821 16.5246 21.379 16.5805H22.379Z" fill="#7C83A1"/>
</svg>
